<svg xmlns="http://www.w3.org/2000/svg" xmlns:xlink="http://www.w3.org/1999/xlink" viewBox="0,0,256,256" width="512px" height="512px" fill-rule="nonzero"><g fill="#f4e9cd" fill-rule="nonzero" stroke="none" stroke-width="1" stroke-linecap="butt" stroke-linejoin="miter" stroke-miterlimit="10" stroke-dasharray="" stroke-dashoffset="0" font-family="none" font-weight="none" font-size="none" text-anchor="none" style="mix-blend-mode: normal"><g transform="scale(4,4)"><path d="M32,3c-16.016,0 -29,12.984 -29,29c0,16.016 12.984,29 29,29c16.016,0 29,-12.984 29,-29c0,-16.016 -12.984,-29 -29,-29zM32,5c14.912,0 27,12.088 27,27c0,14.912 -12.088,27 -27,27c-14.912,0 -27,-12.088 -27,-27c0,-14.912 12.088,-27 27,-27zM32,8.07227c-13.194,0 -23.92773,10.73473 -23.92773,23.92773c0,6.268 2.40639,12.19259 6.77539,16.68359c0.196,0.201 0.4568,0.30273 0.7168,0.30273c0.251,0 0.50227,-0.0932 0.69727,-0.2832c0.396,-0.385 0.40453,-1.01806 0.01953,-1.41406c-4.004,-4.116 -6.20898,-9.54606 -6.20898,-15.28906c0,-12.091 9.83869,-21.92773 21.92969,-21.92773c1.369,0 2.73545,0.126 4.06445,0.375c0.546,0.102 1.06597,-0.25488 1.16797,-0.79688c0.102,-0.543 -0.25583,-1.06597 -0.79883,-1.16797c-1.451,-0.272 -2.94255,-0.41016 -4.43555,-0.41016zM40.05859,9.54297c-0.38925,0.01509 -0.75219,0.25873 -0.89844,0.64648c-0.195,0.517 0.06503,1.09406 0.58203,1.28906c0.598,0.226 1.18886,0.47895 1.75586,0.75195c0.141,0.068 0.28955,0.09961 0.43555,0.09961c0.372,0 0.72939,-0.20645 0.90039,-0.56445c0.241,-0.497 0.03216,-1.09594 -0.46484,-1.33594c-0.62,-0.3 -1.26592,-0.57527 -1.91992,-0.82227c-0.12875,-0.04875 -0.26087,-0.06948 -0.39062,-0.06445zM45.20703,12.38281c-0.2525,0.04162 -0.48889,0.17884 -0.65039,0.40234c-0.322,0.45 -0.22048,1.07448 0.22852,1.39649c5.725,4.115 9.14453,10.77636 9.14453,17.81836c0,5.724 -2.19383,11.13995 -6.17383,15.25195c-0.385,0.396 -0.37452,1.02906 0.02148,1.41406c0.195,0.187 0.44727,0.28125 0.69727,0.28125c0.261,0 0.52175,-0.10069 0.71875,-0.30469c4.344,-4.487 6.73633,-10.39853 6.73633,-16.64453c0,-7.684 -3.72956,-14.95045 -9.97656,-19.43945c-0.2245,-0.162 -0.49359,-0.21741 -0.74609,-0.17578zM31.9668,13.86133c-0.04283,0.0021 -0.00331,0.00047 -0.02148,0.00195c-0.11036,0.00814 -0.2186,0.03454 -0.32031,0.07813c-3.59883,0.33634 -6.43406,3.44876 -6.44531,7.17578c-0.0035,1.24546 0.3253,2.43168 0.80469,3.52148c0,0.00065 0,0.0013 0,0.00195l0.00391,0.00586c0.00097,0.0022 0.00291,0.00366 0.00391,0.00586c0.02718,0.06181 0.06056,0.1207 0.09961,0.17578c0.38491,0.83101 0.8415,1.62085 1.3457,2.33008c1.30202,1.8313 2.79414,3.21742 3.50586,3.83594c0.11422,0.09929 0.27366,0.0853 0.41016,0.14648c0.17849,0.14444 0.40125,0.22306 0.63086,0.22266c0.0082,-0.00014 0.01523,0.00811 0.02344,0.00781c0.0013,0 0.0026,0 0.00391,0l-0.00391,-0.00781c0.00716,0.00008 0.01432,0.00008 0.02148,0l-0.00781,0.00781c0.0065,-0.00029 0.01108,-0.00741 0.01758,-0.00781h0.00195c0.20155,-0.01144 0.39492,-0.08362 0.55469,-0.20703c0.02225,-0.01731 0.04375,-0.03556 0.06445,-0.05469c0.00196,-0.0013 0.00391,-0.0026 0.00586,-0.00391c0,-0.00065 0,-0.0013 0,-0.00195h0.00195c0.11963,-0.06492 0.26695,-0.06245 0.36719,-0.15625c0.00065,-0.00065 0.0013,-0.0013 0.00195,-0.00195c0.71049,-0.66838 2.20319,-2.16298 3.50781,-4.08203c0.25461,-0.37443 1.02398,-1.60453 1.45898,-2.61328c0.48258,-1.11807 0.81602,-2.31918 0.81836,-3.56445c0.01038,-3.84292 -3.05154,-6.93431 -6.81055,-6.81055l0.00586,-0.00586c-0.01237,-0.00023 -0.02474,-0.00023 -0.03711,0c-0.00456,-0.00003 -0.00911,-0.00003 -0.01367,0zM32.05664,15.85938c0.0013,0 0.0026,0 0.00391,0c2.65389,-0.09849 4.76931,2.00218 4.76172,4.8125c0,0.00065 0,0.0013 0,0.00195c-0.0017,0.88473 -0.24688,1.83147 -0.6543,2.77539c-0.30499,0.70725 -1.19196,2.15568 -1.27734,2.28125c-1.0714,1.57599 -2.23952,2.74313 -2.93945,3.41992c-0.69577,-0.62463 -1.83566,-1.67952 -2.88281,-3.15234c-0.4833,-0.67982 -0.92208,-1.41156 -1.25391,-2.16406c-0.39862,-0.90619 -0.63726,-1.8244 -0.63477,-2.71094c0.0084,-2.79513 2.1943,-5.12976 4.82812,-5.25781c0.0013,0 0.0026,0 0.00391,0c0.10197,-0.0054 0.08406,-0.00706 0.04492,-0.00586zM23.83789,30.99805c-0.55429,-0.01009 -1.1868,-0.00116 -1.73242,0.05273h-0.00195c-1.21141,0.11947 -2.42558,0.41004 -3.51562,1.01172c-3.24845,1.78979 -4.42819,5.73039 -2.77539,8.90625c0.01691,0.13221 0.06007,0.25971 0.12695,0.375c0.0083,0.01406 -0.00114,-0.00369 0.00586,0.00781v0.00195c0.00636,0.00922 0.01287,0.01834 0.01953,0.02734c0.0064,0.0083 0.04374,0.06882 0.02148,0.0332c0.05368,0.07481 0.11743,0.14185 0.18945,0.19922c2.03568,2.99562 6.14374,3.97012 9.41406,2.16992c1.09148,-0.60066 1.96881,-1.4624 2.68945,-2.41016c0,-0.00065 0,-0.0013 0,-0.00195c0.04464,-0.05878 0.08263,-0.12232 0.11328,-0.18945c0.53985,-0.73893 1.00754,-1.51799 1.38281,-2.29883c0,-0.00065 0,-0.0013 0,-0.00195c0.03436,-0.0722 0.05993,-0.14827 0.07617,-0.22656c0.88425,-1.92732 1.39508,-3.81904 1.58203,-4.69922c0.06881,-0.32342 0.02233,-0.66542 -0.11328,-0.96289c-0.0207,-0.05487 -0.04619,-0.1078 -0.07617,-0.1582c-0.00129,-0.00261 -0.00259,-0.00521 -0.00391,-0.00781c-0.12537,-0.20331 -0.31935,-0.35504 -0.54687,-0.42773c-0.11641,-0.07484 -0.18773,-0.20705 -0.32031,-0.25c-0.0013,0 -0.0026,0 -0.00391,0c-0.92776,-0.29663 -2.96074,-0.87939 -5.27148,-1.08984c-0.22942,-0.02134 -0.70548,-0.05046 -1.25977,-0.06055zM40.16211,30.99805c-0.55429,0.01009 -1.03035,0.03921 -1.25977,0.06055c-2.31074,0.21045 -4.34372,0.79321 -5.27148,1.08984c-0.0013,0 -0.0026,0 -0.00391,0c-0.13119,0.0425 -0.20102,0.1743 -0.31641,0.24805c-0.22927,0.07237 -0.4248,0.22491 -0.55078,0.42969c-0.03638,0.05921 -0.06649,0.12205 -0.08984,0.1875c-0.12785,0.29248 -0.17067,0.62579 -0.10352,0.94141c0.18648,0.87799 0.69821,2.76542 1.57813,4.6875c0.01656,0.08248 0.04347,0.16254 0.08008,0.23828c0,0.00065 0,0.0013 0,0.00195c0.37649,0.78337 0.84451,1.56563 1.38672,2.30664c0.02992,0.06425 0.06658,0.12514 0.10938,0.18164c0,0.00065 0,0.0013 0,0.00195c0.72065,0.94776 1.59797,1.80949 2.68945,2.41016c3.26862,1.79926 7.37334,0.82588 9.41016,-2.16602c0.07367,-0.05829 0.13877,-0.12667 0.19336,-0.20313l0.00195,-0.00391c0.00197,-0.00259 0.00392,-0.0052 0.00586,-0.00781c-0.0098,0.01688 0.0096,-0.01275 0.01953,-0.02734c0.00465,-0.0071 0.00921,-0.01426 0.01367,-0.02148v-0.00195c0.0069,-0.01148 -0.00244,0.00629 0.00586,-0.00781c0.06781,-0.11573 0.11165,-0.24393 0.12891,-0.37695c0,-0.00065 0,-0.0013 0,-0.00195c1.6497,-3.17519 0.46975,-7.1133 -2.77734,-8.90234h-0.00195c-1.08961,-0.60106 -2.30288,-0.89231 -3.51367,-1.01172h-0.00195c-0.54562,-0.05389 -1.17813,-0.06282 -1.73242,-0.05273zM23.8418,33.01172c0.53965,0.01028 1.00083,0.03241 1.07227,0.03906c0.00065,0 0.0013,0 0.00195,0c1.89832,0.17289 3.48699,0.63018 4.41797,0.91406c-0.20867,0.91032 -0.57889,2.42004 -1.35937,4.05078l-0.00195,0.00195c-0.00065,0.0013 -0.0013,0.0026 -0.00195,0.00391c-0.3612,0.75071 -0.78775,1.4871 -1.2832,2.13867c0,0.00065 0,0.0013 0,0.00195c-0.00131,0.0013 -0.00261,0.0026 -0.00391,0.00391c-0.59851,0.78615 -1.28361,1.43875 -2.05859,1.86523c-2.44936,1.34829 -5.55064,0.56843 -6.93945,-1.67383c-0.00065,-0.0013 -0.0013,-0.00261 -0.00195,-0.00391c-0.06757,-0.10811 -0.07122,-0.11327 -0.01953,-0.02539c-0.00258,-0.00327 -0.00519,-0.00653 -0.00781,-0.00977v-0.00195c-1.37516,-2.27527 -0.56444,-5.14568 1.89844,-6.50195c0.7754,-0.42801 1.72412,-0.6728 2.74609,-0.77344c0.38325,-0.03795 1.00137,-0.03957 1.54102,-0.0293zM40.1582,33.01172c0.53965,-0.01027 1.15776,-0.00864 1.54102,0.0293c1.02197,0.10064 1.9707,0.34543 2.74609,0.77344c2.46348,1.3566 3.27499,4.22838 1.89844,6.50391c-0.0033,0.00518 -0.00656,0.01039 -0.00977,0.01563l0.00195,-0.00586c0.05169,-0.08788 0.04803,-0.08271 -0.01953,0.02539c-0.00065,0.0013 -0.0013,0.0026 -0.00195,0.00391c-1.38881,2.24226 -4.49009,3.02212 -6.93945,1.67383c-0.77498,-0.42649 -1.46008,-1.07908 -2.05859,-1.86523c-0.0012,-0.0016 -0.00271,-0.00231 -0.00391,-0.00391c0,-0.00065 0,-0.0013 0,-0.00195c-0.49285,-0.64816 -0.91736,-1.38032 -1.27734,-2.12695c-0.00129,-0.00261 -0.00259,-0.00521 -0.00391,-0.00781l-0.00391,-0.00781l-0.00195,-0.00195c-0.78048,-1.63074 -1.15071,-3.14046 -1.35937,-4.05078c0.93098,-0.28388 2.51964,-0.74117 4.41797,-0.91406c0.00065,0 0.0013,0 0.00195,0c0.07143,-0.00664 0.53262,-0.02879 1.07227,-0.03906zM19.71875,49.16406c-0.3292,0.00714 -0.6338,0.17587 -0.81445,0.45117l-1.12109,1.65625c-0.20033,0.29621 -0.22739,0.6768 -0.071,0.99837c0.15639,0.32158 0.47248,0.53528 0.82917,0.56059c0.35669,0.02531 0.69979,-0.14161 0.90003,-0.43787l1.11914,-1.6582c0.21439,-0.30875 0.23756,-0.71164 0.05996,-1.04293c-0.17759,-0.33129 -0.52595,-0.53502 -0.90176,-0.52738zM43.87695,49.42578c-0.37086,-0.00428 -0.71363,0.19702 -0.89054,0.52299c-0.17691,0.32597 -0.1589,0.72308 0.04679,1.0317l1.08398,1.67969c0.29933,0.46437 0.91844,0.59816 1.38281,0.29883c0.46437,-0.29933 0.59816,-0.91844 0.29883,-1.38281l-1.08594,-1.68164c-0.18076,-0.28828 -0.49569,-0.46488 -0.83594,-0.46875zM24.21484,51.50586c-0.40138,0.02185 -0.75068,0.2819 -0.88672,0.66016l-0.70703,1.87109c-0.13691,0.33669 -0.08038,0.72116 0.14766,1.00418c0.22804,0.28303 0.59168,0.42006 0.94979,0.35791c0.35811,-0.06215 0.65431,-0.3137 0.77365,-0.65701l0.70703,-1.87109c0.11818,-0.30034 0.08415,-0.63924 -0.09138,-0.91009c-0.17553,-0.27085 -0.47097,-0.44034 -0.79339,-0.45514c-0.03318,-0.00165 -0.06643,-0.00165 -0.09961,0zM39.23438,51.67383c-0.31655,0.0177 -0.60595,0.18443 -0.78003,0.4494c-0.17408,0.26497 -0.21221,0.59679 -0.10278,0.89435l0.66406,1.88672c0.11725,0.33885 0.40693,0.58899 0.75925,0.65563c0.35231,0.06664 0.71334,-0.06043 0.94625,-0.33305c0.23291,-0.27262 0.30205,-0.64906 0.18122,-0.98665l-0.66602,-1.88672c-0.14333,-0.42595 -0.55319,-0.70399 -1.00195,-0.67969zM29.22656,52.73047c-0.51379,-0.00615 -0.94865,0.37804 -1.00586,0.88867l-0.25195,1.98438c-0.06957,0.54797 0.31824,1.04859 0.86621,1.11816c0.54797,0.06957 1.04859,-0.31824 1.11816,-0.86621l0.25195,-1.98437c0.04045,-0.28488 -0.04376,-0.57338 -0.23111,-0.79177c-0.18735,-0.21839 -0.45969,-0.3455 -0.7474,-0.34885zM34.29492,52.78906c-0.28242,0.00574 -0.54924,0.13064 -0.73454,0.34385c-0.1853,0.21321 -0.2718,0.49483 -0.23811,0.7753l0.20898,1.99023c0.03729,0.35556 0.26144,0.66421 0.58802,0.80967c0.32658,0.14546 0.70596,0.10562 0.9952,-0.1045c0.28924,-0.21012 0.4444,-0.55861 0.40701,-0.91415l-0.20898,-1.99023c-0.04717,-0.52372 -0.49186,-0.92147 -1.01758,-0.91016z"></path></g></g></svg>