<svg width="168" height="34" viewBox="0 0 168 34" fill="none" xmlns="http://www.w3.org/2000/svg">
<path d="M71.6357 22L70.4053 18.8281H66.3994L65.1758 22H64L67.9102 11.9648H68.9561L72.8389 22H71.6357ZM70.0566 17.7959L68.8877 14.6445C68.8604 14.5625 68.8148 14.4281 68.751 14.2412C68.6917 14.0544 68.6302 13.8607 68.5664 13.6602C68.5026 13.4596 68.4502 13.2979 68.4092 13.1748C68.3636 13.3617 68.3135 13.5485 68.2588 13.7354C68.2087 13.9176 68.1585 14.0885 68.1084 14.248C68.0583 14.403 68.015 14.5352 67.9785 14.6445L66.7891 17.7959H70.0566ZM75.1904 11.3633V14.0225C75.1904 14.3278 75.1813 14.624 75.1631 14.9111C75.1494 15.1982 75.138 15.4215 75.1289 15.5811H75.1904C75.3955 15.2438 75.6917 14.959 76.0791 14.7266C76.4665 14.4941 76.9609 14.3779 77.5625 14.3779C78.5013 14.3779 79.2487 14.7038 79.8047 15.3555C80.3652 16.0026 80.6455 16.9665 80.6455 18.2471C80.6455 19.0902 80.5179 19.8011 80.2627 20.3799C80.0075 20.9587 79.6475 21.3962 79.1826 21.6924C78.7178 21.9886 78.1686 22.1367 77.5352 22.1367C76.9427 22.1367 76.4551 22.0273 76.0723 21.8086C75.694 21.5853 75.4023 21.3141 75.1973 20.9951H75.1084L74.876 22H74.0557V11.3633H75.1904ZM77.3779 15.3281C76.8356 15.3281 76.4049 15.4352 76.0859 15.6494C75.7669 15.859 75.5368 16.1781 75.3955 16.6064C75.2588 17.0303 75.1904 17.568 75.1904 18.2197V18.2812C75.1904 19.2246 75.3477 19.9469 75.6621 20.4482C75.9766 20.945 76.5485 21.1934 77.3779 21.1934C78.0752 21.1934 78.597 20.9382 78.9434 20.4277C79.2943 19.9173 79.4697 19.1882 79.4697 18.2402C79.4697 17.2741 79.2965 16.5472 78.9502 16.0596C78.6084 15.5719 78.0843 15.3281 77.3779 15.3281ZM89.0879 18.2402C89.0879 18.8555 89.0081 19.4046 88.8486 19.8877C88.6891 20.3708 88.459 20.7786 88.1582 21.1113C87.8574 21.444 87.4928 21.6992 87.0645 21.877C86.6406 22.0501 86.1598 22.1367 85.6221 22.1367C85.1208 22.1367 84.6605 22.0501 84.2412 21.877C83.8265 21.6992 83.4665 21.444 83.1611 21.1113C82.8604 20.7786 82.6257 20.3708 82.457 19.8877C82.293 19.4046 82.2109 18.8555 82.2109 18.2402C82.2109 17.4199 82.3499 16.7227 82.6279 16.1484C82.9059 15.5697 83.3024 15.1299 83.8174 14.8291C84.3369 14.5238 84.9544 14.3711 85.6699 14.3711C86.3535 14.3711 86.9505 14.5238 87.4609 14.8291C87.9759 15.1344 88.3747 15.5765 88.6572 16.1553C88.9443 16.7295 89.0879 17.4245 89.0879 18.2402ZM83.3867 18.2402C83.3867 18.8418 83.4665 19.3636 83.626 19.8057C83.7855 20.2477 84.0316 20.5895 84.3643 20.8311C84.6969 21.0726 85.1253 21.1934 85.6494 21.1934C86.1689 21.1934 86.5951 21.0726 86.9277 20.8311C87.265 20.5895 87.5133 20.2477 87.6729 19.8057C87.8324 19.3636 87.9121 18.8418 87.9121 18.2402C87.9121 17.6432 87.8324 17.1283 87.6729 16.6953C87.5133 16.2578 87.2673 15.9206 86.9346 15.6836C86.6019 15.4466 86.1712 15.3281 85.6426 15.3281C84.8633 15.3281 84.2913 15.5856 83.9268 16.1006C83.5667 16.6156 83.3867 17.3288 83.3867 18.2402ZM97.2363 14.5078V22H96.3066L96.1426 20.9473H96.0811C95.9261 21.207 95.7256 21.4258 95.4795 21.6035C95.2334 21.7812 94.9554 21.9134 94.6455 22C94.3402 22.0911 94.0143 22.1367 93.668 22.1367C93.0755 22.1367 92.5788 22.041 92.1777 21.8496C91.7767 21.6582 91.4736 21.362 91.2686 20.9609C91.068 20.5599 90.9678 20.0449 90.9678 19.416V14.5078H92.1162V19.334C92.1162 19.9583 92.2575 20.4255 92.54 20.7354C92.8226 21.0407 93.2533 21.1934 93.832 21.1934C94.388 21.1934 94.8301 21.0885 95.1582 20.8789C95.4909 20.6693 95.7301 20.3617 95.876 19.9561C96.0218 19.5459 96.0947 19.0446 96.0947 18.4521V14.5078H97.2363ZM102.056 21.207C102.243 21.207 102.434 21.1911 102.63 21.1592C102.826 21.1273 102.985 21.0885 103.108 21.043V21.9248C102.976 21.984 102.792 22.0342 102.555 22.0752C102.322 22.1162 102.094 22.1367 101.871 22.1367C101.475 22.1367 101.115 22.0684 100.791 21.9316C100.467 21.7904 100.208 21.5534 100.012 21.2207C99.8203 20.888 99.7246 20.4277 99.7246 19.8398V15.3965H98.6582V14.8428L99.7314 14.3984L100.183 12.7715H100.866V14.5078H103.061V15.3965H100.866V19.8057C100.866 20.2751 100.973 20.626 101.188 20.8584C101.406 21.0908 101.696 21.207 102.056 21.207Z" fill="#023535"/>
<rect x="0.5" y="0.5" width="167" height="33" rx="16.5" stroke="#023535"/>
</svg>
