<svg width="168" height="34" viewBox="0 0 168 34" fill="none" xmlns="http://www.w3.org/2000/svg">
<path d="M64.1396 12.8877C63.5882 12.8877 63.0915 12.9834 62.6494 13.1748C62.2119 13.3617 61.8382 13.6351 61.5283 13.9951C61.223 14.3506 60.9883 14.7812 60.8242 15.2871C60.6602 15.793 60.5781 16.3626 60.5781 16.9961C60.5781 17.8346 60.708 18.5638 60.9678 19.1836C61.2321 19.7988 61.624 20.2751 62.1436 20.6123C62.6676 20.9495 63.3216 21.1182 64.1055 21.1182C64.5521 21.1182 64.9714 21.0817 65.3633 21.0088C65.7598 20.9313 66.1449 20.8356 66.5186 20.7217V21.7334C66.154 21.8701 65.7712 21.9704 65.3701 22.0342C64.9691 22.1025 64.4928 22.1367 63.9414 22.1367C62.9251 22.1367 62.0752 21.9271 61.3916 21.5078C60.7126 21.084 60.2021 20.487 59.8604 19.7168C59.5231 18.9466 59.3545 18.0374 59.3545 16.9893C59.3545 16.2327 59.4593 15.5423 59.6689 14.918C59.8831 14.2891 60.193 13.7467 60.5986 13.291C61.0088 12.8353 61.5101 12.4844 62.1025 12.2383C62.6995 11.9876 63.3831 11.8623 64.1533 11.8623C64.6592 11.8623 65.1468 11.9124 65.6162 12.0127C66.0856 12.113 66.5094 12.2565 66.8877 12.4434L66.4229 13.4277C66.1038 13.2819 65.7529 13.1566 65.3701 13.0518C64.9919 12.9424 64.5817 12.8877 64.1396 12.8877ZM74.9746 18.2402C74.9746 18.8555 74.8949 19.4046 74.7354 19.8877C74.5758 20.3708 74.3457 20.7786 74.0449 21.1113C73.7441 21.444 73.3796 21.6992 72.9512 21.877C72.5273 22.0501 72.0465 22.1367 71.5088 22.1367C71.0075 22.1367 70.5472 22.0501 70.1279 21.877C69.7132 21.6992 69.3532 21.444 69.0479 21.1113C68.7471 20.7786 68.5124 20.3708 68.3438 19.8877C68.1797 19.4046 68.0977 18.8555 68.0977 18.2402C68.0977 17.4199 68.2367 16.7227 68.5146 16.1484C68.7926 15.5697 69.1891 15.1299 69.7041 14.8291C70.2236 14.5238 70.8411 14.3711 71.5566 14.3711C72.2402 14.3711 72.8372 14.5238 73.3477 14.8291C73.8626 15.1344 74.2614 15.5765 74.5439 16.1553C74.8311 16.7295 74.9746 17.4245 74.9746 18.2402ZM69.2734 18.2402C69.2734 18.8418 69.3532 19.3636 69.5127 19.8057C69.6722 20.2477 69.9183 20.5895 70.251 20.8311C70.5837 21.0726 71.012 21.1934 71.5361 21.1934C72.0557 21.1934 72.4818 21.0726 72.8145 20.8311C73.1517 20.5895 73.4001 20.2477 73.5596 19.8057C73.7191 19.3636 73.7988 18.8418 73.7988 18.2402C73.7988 17.6432 73.7191 17.1283 73.5596 16.6953C73.4001 16.2578 73.154 15.9206 72.8213 15.6836C72.4886 15.4466 72.0579 15.3281 71.5293 15.3281C70.75 15.3281 70.1781 15.5856 69.8135 16.1006C69.4535 16.6156 69.2734 17.3288 69.2734 18.2402ZM80.4844 14.3711C81.373 14.3711 82.0452 14.5898 82.501 15.0273C82.9567 15.4603 83.1846 16.1576 83.1846 17.1191V22H82.0635V17.1943C82.0635 16.57 81.9199 16.1029 81.6328 15.793C81.3503 15.4831 80.915 15.3281 80.3271 15.3281C79.4977 15.3281 78.9144 15.5628 78.5771 16.0322C78.2399 16.5016 78.0713 17.1829 78.0713 18.0762V22H76.9365V14.5078H77.8525L78.0234 15.5879H78.085C78.2445 15.3236 78.4473 15.1025 78.6934 14.9248C78.9395 14.7425 79.2152 14.6058 79.5205 14.5146C79.8258 14.4189 80.1471 14.3711 80.4844 14.3711ZM87.9424 21.207C88.1292 21.207 88.3206 21.1911 88.5166 21.1592C88.7126 21.1273 88.8721 21.0885 88.9951 21.043V21.9248C88.863 21.984 88.6784 22.0342 88.4414 22.0752C88.209 22.1162 87.9811 22.1367 87.7578 22.1367C87.3613 22.1367 87.0013 22.0684 86.6777 21.9316C86.3542 21.7904 86.0944 21.5534 85.8984 21.2207C85.707 20.888 85.6113 20.4277 85.6113 19.8398V15.3965H84.5449V14.8428L85.6182 14.3984L86.0693 12.7715H86.7529V14.5078H88.9473V15.3965H86.7529V19.8057C86.7529 20.2751 86.86 20.626 87.0742 20.8584C87.293 21.0908 87.5824 21.207 87.9424 21.207ZM93.3154 14.3848C94.2087 14.3848 94.8717 14.5853 95.3047 14.9863C95.7376 15.3874 95.9541 16.0277 95.9541 16.9072V22H95.127L94.9082 20.8926H94.8535C94.6439 21.166 94.4251 21.3962 94.1973 21.583C93.9694 21.7653 93.7051 21.9043 93.4043 22C93.1081 22.0911 92.7435 22.1367 92.3105 22.1367C91.8548 22.1367 91.4492 22.057 91.0938 21.8975C90.7428 21.738 90.4648 21.4964 90.2598 21.1729C90.0592 20.8493 89.959 20.4391 89.959 19.9424C89.959 19.195 90.2552 18.6208 90.8477 18.2197C91.4401 17.8187 92.3424 17.5999 93.5547 17.5635L94.8467 17.5088V17.0508C94.8467 16.4036 94.7077 15.9502 94.4297 15.6904C94.1517 15.4307 93.7598 15.3008 93.2539 15.3008C92.862 15.3008 92.4883 15.3577 92.1328 15.4717C91.7773 15.5856 91.4401 15.7201 91.1211 15.875L90.7725 15.0137C91.1097 14.8405 91.4971 14.6924 91.9346 14.5693C92.3721 14.4463 92.8324 14.3848 93.3154 14.3848ZM94.833 18.3086L93.6914 18.3564C92.7572 18.3929 92.0986 18.5456 91.7158 18.8145C91.333 19.0833 91.1416 19.4639 91.1416 19.9561C91.1416 20.3844 91.2715 20.7012 91.5312 20.9062C91.791 21.1113 92.1351 21.2139 92.5635 21.2139C93.2288 21.2139 93.7734 21.0293 94.1973 20.6602C94.6211 20.291 94.833 19.7373 94.833 18.999V18.3086ZM101.293 22.1367C100.618 22.1367 100.024 21.9977 99.5088 21.7197C98.9938 21.4417 98.5928 21.0179 98.3057 20.4482C98.0186 19.8786 97.875 19.1608 97.875 18.2949C97.875 17.388 98.0254 16.6475 98.3262 16.0732C98.6315 15.4945 99.0508 15.0661 99.584 14.7881C100.117 14.5101 100.723 14.3711 101.402 14.3711C101.776 14.3711 102.136 14.4098 102.482 14.4873C102.833 14.5602 103.12 14.6536 103.344 14.7676L103.002 15.7178C102.774 15.6266 102.51 15.5446 102.209 15.4717C101.913 15.3988 101.635 15.3623 101.375 15.3623C100.855 15.3623 100.423 15.474 100.076 15.6973C99.7344 15.9206 99.4769 16.2487 99.3037 16.6816C99.1351 17.1146 99.0508 17.6478 99.0508 18.2812C99.0508 18.8874 99.1328 19.4046 99.2969 19.833C99.4655 20.2614 99.7139 20.5895 100.042 20.8174C100.375 21.0407 100.789 21.1523 101.286 21.1523C101.683 21.1523 102.04 21.1113 102.359 21.0293C102.678 20.9427 102.968 20.8424 103.228 20.7285V21.7402C102.977 21.8678 102.697 21.9658 102.387 22.0342C102.081 22.1025 101.717 22.1367 101.293 22.1367ZM107.425 21.207C107.612 21.207 107.803 21.1911 107.999 21.1592C108.195 21.1273 108.354 21.0885 108.478 21.043V21.9248C108.345 21.984 108.161 22.0342 107.924 22.0752C107.691 22.1162 107.464 22.1367 107.24 22.1367C106.844 22.1367 106.484 22.0684 106.16 21.9316C105.837 21.7904 105.577 21.5534 105.381 21.2207C105.189 20.888 105.094 20.4277 105.094 19.8398V15.3965H104.027V14.8428L105.101 14.3984L105.552 12.7715H106.235V14.5078H108.43V15.3965H106.235V19.8057C106.235 20.2751 106.342 20.626 106.557 20.8584C106.775 21.0908 107.065 21.207 107.425 21.207Z" fill="#023535"/>
<rect x="0.5" y="0.5" width="167" height="33" rx="16.5" stroke="#023535"/>
</svg>
