<svg width="168" height="34" viewBox="0 0 168 34" fill="none" xmlns="http://www.w3.org/2000/svg">
<path d="M61.4785 12.0059C62.7682 12.0059 63.7093 12.2588 64.3018 12.7646C64.8988 13.266 65.1973 13.986 65.1973 14.9248C65.1973 15.3486 65.1266 15.752 64.9854 16.1348C64.8486 16.513 64.6253 16.848 64.3154 17.1396C64.0055 17.4268 63.5977 17.6546 63.0918 17.8232C62.5905 17.9873 61.9753 18.0693 61.2461 18.0693H60.0293V22H58.8672V12.0059H61.4785ZM61.3691 12.9971H60.0293V17.0713H61.1162C61.7542 17.0713 62.2852 17.0029 62.709 16.8662C63.1374 16.7295 63.4587 16.5085 63.6729 16.2031C63.887 15.8932 63.9941 15.4831 63.9941 14.9727C63.9941 14.3073 63.7822 13.8128 63.3584 13.4893C62.9346 13.1611 62.2715 12.9971 61.3691 12.9971ZM70.5225 14.3711C70.6729 14.3711 70.8301 14.3802 70.9941 14.3984C71.1582 14.4121 71.304 14.4326 71.4316 14.46L71.2881 15.5127C71.165 15.4808 71.0283 15.4557 70.8779 15.4375C70.7275 15.4193 70.5863 15.4102 70.4541 15.4102C70.1533 15.4102 69.8685 15.4717 69.5996 15.5947C69.3353 15.7132 69.1029 15.8864 68.9023 16.1143C68.7018 16.3376 68.5446 16.6087 68.4307 16.9277C68.3167 17.2422 68.2598 17.5931 68.2598 17.9805V22H67.1182V14.5078H68.0615L68.1846 15.8887H68.2324C68.3874 15.6107 68.5742 15.3577 68.793 15.1299C69.0117 14.8975 69.2646 14.7129 69.5518 14.5762C69.8434 14.4395 70.167 14.3711 70.5225 14.3711ZM79.3066 18.2402C79.3066 18.8555 79.2269 19.4046 79.0674 19.8877C78.9079 20.3708 78.6777 20.7786 78.377 21.1113C78.0762 21.444 77.7116 21.6992 77.2832 21.877C76.8594 22.0501 76.3786 22.1367 75.8408 22.1367C75.3395 22.1367 74.8792 22.0501 74.46 21.877C74.0452 21.6992 73.6852 21.444 73.3799 21.1113C73.0791 20.7786 72.8444 20.3708 72.6758 19.8877C72.5117 19.4046 72.4297 18.8555 72.4297 18.2402C72.4297 17.4199 72.5687 16.7227 72.8467 16.1484C73.1247 15.5697 73.5212 15.1299 74.0361 14.8291C74.5557 14.5238 75.1732 14.3711 75.8887 14.3711C76.5723 14.3711 77.1693 14.5238 77.6797 14.8291C78.1947 15.1344 78.5934 15.5765 78.876 16.1553C79.1631 16.7295 79.3066 17.4245 79.3066 18.2402ZM73.6055 18.2402C73.6055 18.8418 73.6852 19.3636 73.8447 19.8057C74.0042 20.2477 74.2503 20.5895 74.583 20.8311C74.9157 21.0726 75.3441 21.1934 75.8682 21.1934C76.3877 21.1934 76.8138 21.0726 77.1465 20.8311C77.4837 20.5895 77.7321 20.2477 77.8916 19.8057C78.0511 19.3636 78.1309 18.8418 78.1309 18.2402C78.1309 17.6432 78.0511 17.1283 77.8916 16.6953C77.7321 16.2578 77.486 15.9206 77.1533 15.6836C76.8206 15.4466 76.39 15.3281 75.8613 15.3281C75.082 15.3281 74.5101 15.5856 74.1455 16.1006C73.7855 16.6156 73.6055 17.3288 73.6055 18.2402ZM80.3662 25.3633C80.1338 25.3633 79.931 25.3451 79.7578 25.3086C79.5846 25.2767 79.4342 25.238 79.3066 25.1924V24.2695C79.4479 24.3151 79.5915 24.3493 79.7373 24.3721C79.8831 24.3994 80.0472 24.4131 80.2295 24.4131C80.5394 24.4131 80.79 24.3265 80.9814 24.1533C81.1729 23.9801 81.2686 23.6657 81.2686 23.21V14.5078H82.4033V23.1826C82.4033 23.6383 82.3304 24.028 82.1846 24.3516C82.0387 24.6797 81.8154 24.9303 81.5146 25.1035C81.2139 25.2767 80.8311 25.3633 80.3662 25.3633ZM81.166 12.4502C81.166 12.195 81.2298 12.0081 81.3574 11.8896C81.4896 11.7666 81.6536 11.7051 81.8496 11.7051C82.0365 11.7051 82.196 11.7666 82.3281 11.8896C82.4648 12.0081 82.5332 12.195 82.5332 12.4502C82.5332 12.7008 82.4648 12.8877 82.3281 13.0107C82.196 13.1338 82.0365 13.1953 81.8496 13.1953C81.6536 13.1953 81.4896 13.1338 81.3574 13.0107C81.2298 12.8877 81.166 12.7008 81.166 12.4502ZM87.6943 14.3711C88.3324 14.3711 88.8792 14.5124 89.335 14.7949C89.7907 15.0775 90.1393 15.474 90.3809 15.9844C90.6224 16.4902 90.7432 17.0827 90.7432 17.7617V18.4658H85.5684C85.582 19.3454 85.8008 20.0153 86.2246 20.4756C86.6484 20.9359 87.2454 21.166 88.0156 21.166C88.4896 21.166 88.9089 21.1227 89.2734 21.0361C89.638 20.9495 90.0163 20.8219 90.4082 20.6533V21.6514C90.0299 21.82 89.654 21.943 89.2803 22.0205C88.9111 22.098 88.4736 22.1367 87.9678 22.1367C87.2477 22.1367 86.6188 21.9909 86.0811 21.6992C85.5479 21.403 85.1331 20.9701 84.8369 20.4004C84.5407 19.8307 84.3926 19.1335 84.3926 18.3086C84.3926 17.502 84.527 16.8047 84.7959 16.2168C85.0693 15.6243 85.4521 15.1686 85.9443 14.8496C86.4411 14.5306 87.0244 14.3711 87.6943 14.3711ZM87.6807 15.3008C87.0745 15.3008 86.5915 15.499 86.2314 15.8955C85.8714 16.292 85.6572 16.8457 85.5889 17.5566H89.5537C89.5492 17.11 89.4785 16.7181 89.3418 16.3809C89.2096 16.0391 89.0068 15.7747 88.7334 15.5879C88.46 15.3965 88.109 15.3008 87.6807 15.3008ZM95.6719 22.1367C94.9974 22.1367 94.4027 21.9977 93.8877 21.7197C93.3727 21.4417 92.9717 21.0179 92.6846 20.4482C92.3975 19.8786 92.2539 19.1608 92.2539 18.2949C92.2539 17.388 92.4043 16.6475 92.7051 16.0732C93.0104 15.4945 93.4297 15.0661 93.9629 14.7881C94.4961 14.5101 95.1022 14.3711 95.7812 14.3711C96.1549 14.3711 96.515 14.4098 96.8613 14.4873C97.2122 14.5602 97.4993 14.6536 97.7227 14.7676L97.3809 15.7178C97.153 15.6266 96.8887 15.5446 96.5879 15.4717C96.2917 15.3988 96.0137 15.3623 95.7539 15.3623C95.2344 15.3623 94.8014 15.474 94.4551 15.6973C94.1133 15.9206 93.8558 16.2487 93.6826 16.6816C93.514 17.1146 93.4297 17.6478 93.4297 18.2812C93.4297 18.8874 93.5117 19.4046 93.6758 19.833C93.8444 20.2614 94.0928 20.5895 94.4209 20.8174C94.7536 21.0407 95.1683 21.1523 95.665 21.1523C96.0615 21.1523 96.4193 21.1113 96.7383 21.0293C97.0573 20.9427 97.3467 20.8424 97.6064 20.7285V21.7402C97.3558 21.8678 97.0755 21.9658 96.7656 22.0342C96.4603 22.1025 96.0957 22.1367 95.6719 22.1367ZM101.804 21.207C101.991 21.207 102.182 21.1911 102.378 21.1592C102.574 21.1273 102.733 21.0885 102.856 21.043V21.9248C102.724 21.984 102.54 22.0342 102.303 22.0752C102.07 22.1162 101.842 22.1367 101.619 22.1367C101.223 22.1367 100.863 22.0684 100.539 21.9316C100.215 21.7904 99.9557 21.5534 99.7598 21.2207C99.5684 20.888 99.4727 20.4277 99.4727 19.8398V15.3965H98.4062V14.8428L99.4795 14.3984L99.9307 12.7715H100.614V14.5078H102.809V15.3965H100.614V19.8057C100.614 20.2751 100.721 20.626 100.936 20.8584C101.154 21.0908 101.444 21.207 101.804 21.207ZM109.221 19.9492C109.221 20.4277 109.1 20.8311 108.858 21.1592C108.621 21.4827 108.28 21.7266 107.833 21.8906C107.391 22.0547 106.862 22.1367 106.247 22.1367C105.723 22.1367 105.27 22.0957 104.887 22.0137C104.504 21.9316 104.169 21.8154 103.882 21.665V20.6191C104.187 20.7695 104.552 20.9062 104.976 21.0293C105.399 21.1523 105.832 21.2139 106.274 21.2139C106.922 21.2139 107.391 21.109 107.683 20.8994C107.974 20.6898 108.12 20.4049 108.12 20.0449C108.12 19.8398 108.061 19.6598 107.942 19.5049C107.828 19.3454 107.635 19.1927 107.361 19.0469C107.088 18.8965 106.71 18.7324 106.227 18.5547C105.748 18.3724 105.333 18.1924 104.982 18.0146C104.636 17.8324 104.367 17.6113 104.176 17.3516C103.989 17.0918 103.896 16.7546 103.896 16.3398C103.896 15.7064 104.151 15.221 104.661 14.8838C105.176 14.542 105.851 14.3711 106.685 14.3711C107.136 14.3711 107.557 14.4167 107.949 14.5078C108.346 14.5944 108.715 14.7129 109.057 14.8633L108.674 15.7725C108.364 15.6403 108.034 15.5286 107.683 15.4375C107.332 15.3464 106.974 15.3008 106.609 15.3008C106.085 15.3008 105.682 15.3874 105.399 15.5605C105.121 15.7337 104.982 15.9707 104.982 16.2715C104.982 16.5039 105.046 16.6953 105.174 16.8457C105.306 16.9961 105.516 17.1374 105.803 17.2695C106.09 17.4017 106.468 17.5566 106.938 17.7344C107.407 17.9076 107.812 18.0876 108.154 18.2744C108.496 18.4567 108.758 18.68 108.94 18.9443C109.127 19.2041 109.221 19.5391 109.221 19.9492Z" fill="#023535"/>
<rect x="0.5" y="0.5" width="167" height="33" rx="16.5" stroke="#023535"/>
</svg>
